<?xml version="1.0" standalone="no"?>
<!DOCTYPE svg PUBLIC "-//W3C//DTD SVG 20010904//EN"
 "http://www.w3.org/TR/2001/REC-SVG-20010904/DTD/svg10.dtd">
<svg version="1.0" xmlns="http://www.w3.org/2000/svg"
 width="960.000000pt" height="960.000000pt" viewBox="0 0 960.000000 960.000000"
 preserveAspectRatio="xMidYMid meet">
<metadata>
Created by potrace 1.14, written by Peter Selinger 2001-2017
</metadata>
<g transform="translate(0.000000,960.000000) scale(0.100000,-0.100000)"
fill="#000000" stroke="none">
<path d="M4538 9595 c-2 -1 -49 -6 -106 -10 -57 -3 -113 -8 -125 -10 -12 -2
-49 -6 -82 -10 -33 -3 -103 -13 -155 -21 -52 -8 -106 -17 -120 -19 -238 -34
-713 -176 -1012 -301 -172 -72 -503 -237 -593 -296 -38 -25 -108 -70 -155
-100 -73 -48 -204 -139 -235 -165 -5 -5 -26 -19 -45 -33 -32 -21 -57 -42 -141
-113 -14 -12 -46 -38 -70 -57 -136 -109 -472 -445 -584 -585 -16 -20 -37 -45
-45 -55 -8 -10 -26 -32 -40 -50 -14 -17 -33 -40 -42 -50 -9 -10 -25 -31 -35
-47 -10 -15 -21 -32 -26 -38 -61 -78 -134 -185 -129 -189 3 -3 0 -6 -6 -6 -7
0 -12 -5 -12 -10 0 -6 -9 -21 -20 -33 -12 -12 -23 -32 -26 -44 -4 -13 -10 -23
-15 -23 -5 0 -9 -6 -9 -14 0 -8 -3 -16 -8 -18 -9 -4 -82 -126 -82 -139 0 -5
-3 -9 -8 -9 -4 0 -14 -15 -21 -32 -8 -18 -29 -59 -47 -90 -18 -32 -31 -58 -28
-58 3 0 -3 -12 -14 -27 -11 -16 -20 -31 -21 -35 -1 -5 -15 -38 -32 -75 -32
-70 -51 -114 -54 -123 0 -3 -8 -21 -17 -40 -19 -40 -59 -140 -62 -155 -1 -5
-7 -19 -13 -30 -6 -11 -11 -23 -12 -27 -2 -14 -6 -28 -14 -48 -7 -19 -31 -93
-32 -100 0 -3 -3 -9 -6 -15 -6 -9 -20 -63 -21 -75 0 -3 -4 -12 -9 -21 -4 -9
-11 -31 -14 -49 -3 -18 -10 -40 -14 -49 -5 -9 -11 -29 -14 -46 -3 -16 -8 -39
-11 -50 -14 -55 -36 -147 -41 -172 -2 -15 -7 -39 -10 -53 -3 -14 -8 -38 -10
-55 -3 -16 -8 -37 -10 -45 -3 -13 -10 -54 -20 -125 -2 -11 -6 -33 -8 -50 -3
-16 -8 -51 -11 -77 -3 -27 -9 -68 -12 -93 -35 -273 -39 -705 -9 -980 3 -27 8
-70 10 -95 6 -74 34 -258 55 -365 11 -55 21 -111 24 -125 11 -65 88 -349 126
-465 153 -471 372 -908 640 -1275 22 -30 55 -77 74 -105 20 -27 45 -61 58 -75
13 -14 41 -48 62 -75 22 -28 44 -54 50 -60 6 -5 22 -23 34 -40 32 -41 237
-259 286 -304 22 -20 51 -47 65 -61 39 -38 142 -131 183 -165 20 -16 53 -43
74 -60 20 -16 53 -45 73 -62 20 -18 39 -33 43 -33 5 0 17 -8 27 -18 26 -23 40
-33 76 -56 17 -11 35 -24 42 -30 21 -19 37 -31 68 -50 16 -11 34 -23 40 -28 8
-7 90 -61 160 -105 11 -7 28 -16 38 -19 9 -3 17 -10 17 -15 0 -5 7 -9 15 -9 8
0 15 -4 15 -8 0 -4 15 -15 33 -24 17 -8 103 -51 189 -96 86 -44 159 -77 162
-74 3 3 6 0 6 -6 0 -7 3 -11 8 -10 4 1 39 -13 77 -31 39 -18 75 -34 80 -35 6
-1 20 -8 33 -14 12 -7 22 -10 22 -7 0 3 10 0 23 -7 12 -7 24 -13 27 -13 3 0
15 -6 28 -13 12 -7 22 -10 22 -6 0 3 6 2 13 -4 9 -7 155 -60 187 -68 3 0 12
-3 20 -7 26 -10 120 -39 138 -42 9 -2 18 -4 20 -5 1 -2 5 -3 10 -4 4 -2 27 -8
52 -15 25 -7 53 -15 63 -17 10 -2 27 -6 37 -9 10 -3 27 -7 37 -9 10 -2 36 -9
58 -15 22 -5 54 -13 70 -15 17 -3 41 -8 55 -11 36 -7 71 -14 105 -20 17 -3 41
-8 55 -10 14 -3 43 -7 65 -10 22 -3 49 -7 60 -9 11 -2 49 -7 85 -10 36 -4 76
-9 90 -11 160 -26 815 -26 982 0 13 2 48 6 78 9 461 51 989 201 1444 409 141
64 362 178 435 224 99 63 274 182 336 228 33 24 83 60 110 78 28 19 62 46 77
60 15 14 36 31 46 39 10 7 40 31 66 53 26 22 57 48 68 57 47 40 224 207 267
252 25 27 66 70 91 96 64 66 140 151 175 195 17 20 37 45 45 55 8 10 26 32 40
50 14 17 33 40 42 50 9 10 25 31 35 47 10 15 21 33 26 38 61 78 134 185 129
189 -3 3 0 6 6 6 7 0 12 5 12 10 0 6 9 21 20 33 12 12 23 32 26 44 4 13 10 23
15 23 5 0 9 6 9 14 0 8 3 16 8 18 10 4 69 101 77 127 3 12 10 21 14 21 5 0 14
15 22 33 7 17 23 49 36 69 13 21 20 38 17 38 -4 0 0 8 9 18 10 10 14 22 10 25
-3 4 0 7 7 7 7 0 10 3 7 7 -4 3 0 15 10 25 9 10 13 18 9 18 -4 0 4 19 17 42
20 37 106 232 122 278 2 5 10 27 32 80 8 19 16 42 19 50 2 8 20 62 40 120 20
58 38 112 40 120 2 8 10 40 19 70 9 30 23 82 31 115 9 33 17 67 19 75 15 58
53 238 60 280 2 14 6 41 10 60 4 19 9 46 10 60 4 31 14 95 19 129 44 273 54
768 21 1076 -3 28 -8 70 -10 95 -27 320 -168 900 -295 1210 -114 279 -256 574
-335 695 -18 27 -56 88 -85 135 -29 47 -57 87 -61 88 -5 2 -9 9 -9 15 0 7 -11
24 -25 39 -14 15 -25 30 -25 34 0 4 -15 25 -33 48 -18 23 -45 59 -59 81 -15
22 -38 51 -50 65 -13 14 -41 48 -62 75 -22 28 -44 55 -50 60 -6 6 -22 24 -34
40 -31 40 -237 259 -286 304 -22 20 -58 54 -81 76 -48 46 -131 121 -166 149
-13 11 -38 31 -55 45 -17 14 -47 40 -68 56 -21 17 -46 37 -56 45 -10 8 -28 22
-40 30 -12 8 -31 23 -42 33 -12 9 -24 17 -27 17 -3 0 -19 11 -36 25 -42 35
-46 38 -80 59 -16 11 -34 23 -40 28 -8 7 -90 61 -160 105 -11 7 -28 16 -37 19
-10 3 -18 10 -18 15 0 5 -7 9 -15 9 -8 0 -15 4 -15 9 0 5 -16 15 -35 21 -19 6
-35 16 -35 21 0 6 -4 8 -9 5 -5 -4 -11 -2 -13 2 -4 11 -267 142 -284 142 -8 0
-14 5 -14 10 0 6 -8 10 -18 10 -10 0 -22 4 -28 9 -7 7 -158 73 -174 76 -3 1
-16 6 -30 12 -21 10 -51 21 -70 28 -3 1 -13 5 -22 8 -10 4 -26 10 -35 14 -10
3 -20 7 -23 8 -3 1 -12 4 -20 8 -70 27 -337 108 -400 122 -8 2 -51 12 -95 23
-44 11 -98 23 -120 28 -22 4 -44 8 -50 10 -5 1 -23 5 -40 8 -16 3 -39 8 -50
10 -28 5 -101 17 -128 21 -53 7 -124 17 -142 20 -11 1 -56 6 -100 10 -44 4
-91 9 -105 12 -27 5 -636 13 -642 8z m-473 -1130 c46 -22 110 -81 390 -360
184 -184 339 -335 343 -335 4 0 158 150 342 334 379 377 384 381 510 381 116
0 209 -55 265 -156 26 -46 30 -65 30 -129 0 -72 -18 -137 -50 -178 -5 -7 -157
-161 -337 -342 l-327 -329 97 -99 c219 -224 677 -694 682 -700 3 -4 19 -19 36
-35 l30 -27 535 535 c349 350 551 546 584 565 79 46 133 56 206 41 63 -13 134
-50 157 -82 7 -10 18 -24 26 -31 28 -29 55 -123 51 -184 -8 -139 3 -124 -592
-720 -293 -293 -533 -535 -533 -538 0 -4 189 -195 420 -426 l419 -419 64 62
c36 34 157 152 271 262 319 310 345 333 402 361 67 33 133 34 206 2 29 -12 59
-27 66 -33 36 -28 82 -81 93 -106 6 -16 14 -29 18 -29 10 0 15 -37 15 -115 0
-54 -6 -80 -24 -114 -15 -27 -152 -173 -357 -378 -183 -183 -333 -338 -333
-343 0 -6 145 -155 323 -333 177 -177 332 -336 345 -354 44 -63 63 -149 48
-222 -8 -36 -55 -123 -83 -152 -13 -15 -48 -39 -76 -55 -89 -49 -231 -37 -311
26 -11 8 -165 160 -342 337 l-324 323 -420 -420 c-231 -231 -420 -422 -420
-426 0 -3 44 -49 98 -103 108 -109 819 -833 914 -930 127 -132 149 -270 64
-406 -26 -42 -68 -74 -134 -101 -92 -37 -206 -21 -279 39 -35 28 -192 180
-448 432 -467 461 -646 635 -650 635 -3 0 -194 -189 -425 -420 l-420 -420 331
-331 c293 -293 335 -339 361 -395 19 -40 30 -80 30 -107 0 -51 -18 -123 -32
-132 -6 -4 -8 -11 -5 -16 4 -5 2 -9 -4 -9 -5 0 -13 -9 -16 -20 -13 -42 -99
-99 -184 -123 -68 -19 -167 1 -230 48 -8 5 -164 159 -348 341 l-335 332 -339
-339 c-278 -278 -349 -343 -395 -365 -92 -43 -190 -30 -277 38 -51 39 -61 51
-90 103 -63 114 -46 225 53 335 46 50 459 478 558 576 l63 63 -421 421 c-231
231 -422 420 -426 420 -3 0 -242 -237 -531 -526 -600 -600 -598 -599 -733
-598 -48 0 -89 6 -113 16 -20 10 -39 16 -40 15 -2 -2 -22 13 -50 39 -77 71
-116 208 -84 294 18 48 32 75 52 100 11 14 257 264 547 555 290 292 530 533
533 536 3 3 -25 36 -62 72 -102 100 -375 368 -596 584 l-197 193 -329 -329
c-287 -287 -338 -333 -395 -361 -59 -29 -72 -32 -128 -27 -78 7 -92 10 -110
25 -8 6 -18 9 -21 5 -4 -3 -7 -1 -7 5 0 7 -5 12 -12 12 -19 0 -87 78 -111 129
-40 84 -28 215 28 290 5 8 156 162 335 342 179 181 325 333 325 339 0 6 -144
156 -321 333 -176 177 -330 336 -342 354 -43 62 -63 155 -48 220 7 33 58 133
68 133 4 0 8 6 8 13 0 20 118 85 167 93 78 11 170 -11 227 -56 10 -8 165 -160
343 -338 l324 -322 88 87 c244 243 754 738 762 741 14 5 11 16 -10 38 -10 10
-200 197 -421 414 -649 636 -635 622 -670 693 -37 76 -48 157 -29 213 7 21 12
42 11 47 -1 4 3 7 9 7 5 0 7 5 4 10 -3 6 -1 10 6 10 7 0 10 3 6 6 -3 3 2 15
11 26 74 90 211 138 308 108 48 -14 108 -42 112 -52 2 -5 8 -8 13 -8 10 0 43
-33 634 -635 220 -224 409 -416 420 -427 20 -19 22 -17 285 250 146 149 336
343 422 432 l157 161 -117 120 c-64 67 -162 167 -217 223 -271 279 -325 338
-351 391 -56 115 -14 255 103 343 89 67 183 80 278 37z"/>
<path d="M4380 6500 c-231 -231 -420 -422 -420 -425 0 -3 189 -195 420 -426
l420 -420 420 420 c231 231 420 422 420 425 0 4 -189 195 -420 426 l-420 420
-420 -420z"/>
<path d="M3097 5219 l-417 -419 420 -420 c231 -231 423 -420 426 -420 3 0 194
189 425 420 l420 420 -420 420 c-231 231 -424 420 -428 419 -4 0 -196 -189
-426 -420z"/>
<path d="M5649 5220 l-420 -420 420 -420 c231 -231 422 -420 425 -420 3 0 195
189 426 420 l420 420 -420 420 c-231 231 -422 420 -425 420 -4 0 -195 -189
-426 -420z"/>
<path d="M4380 3951 c-231 -231 -420 -422 -420 -425 0 -4 189 -195 420 -426
l420 -420 420 420 c231 231 420 422 420 425 0 3 -189 195 -420 426 l-420 420
-420 -420z"/>
</g>
</svg>
